<?xml version="1.0" encoding="UTF-8" standalone="no"?>
<svg
   style="display:block"
   width="149.35788"
   height="176.2"
   viewBox="0 0 74.67894 88.099998"
   preserveAspectRatio="xMidYMid"
   version="1.1"
   id="svg4"
   sodipodi:docname="5fb188ba94940c3cb176ea38c5754a0b.svg"
   xmlns:inkscape="http://www.inkscape.org/namespaces/inkscape"
   xmlns:sodipodi="http://sodipodi.sourceforge.net/DTD/sodipodi-0.dtd"
   xmlns="http://www.w3.org/2000/svg"
   xmlns:svg="http://www.w3.org/2000/svg">
  <defs
     id="defs8" />
  <sodipodi:namedview
     id="namedview6"
     pagecolor="#ffffff"
     bordercolor="#666666"
     borderopacity="1.0"
     inkscape:pageshadow="2"
     inkscape:pageopacity="0.0"
     inkscape:pagecheckerboard="0" />
  <path
     d="m 1.5,1.5 h 8.1 v 14.7 c 0,0.6 0,1.2 0.1,1.7 C 9.6,17.3 9.6,16.7 9.6,16.2 V 1.5 c 0,0 63.6,0 63.6,0 h -8.1 c 0,0 0,14.7 0,14.7 0,7 -4.6,13.3 -11.7,17.1 -4.2,2.3 -6.8,5.9 -6.8,9.8 V 45 c 0,3.9 2.5,7.6 6.8,9.8 7.1,3.8 11.7,10 11.7,17.1 0,0 0,14.7 0,14.7 h 8.1 -8.1 -27.7 18 V 76.3 c 0,-3.8 -2.6,-7.4 -7,-9.8 -0.1,0 -0.1,-0.1 -0.2,-0.1 -6.6,-3.6 -14.9,-3.6 -21.5,0 -0.1,0 -0.1,0.1 -0.2,0.1 -4.5,2.4 -7,6 -7,9.8 v 10.2 h 18 c 0,0 -18,0 -18,0 H 1.5 9.6 V 71.8 c 0,-7 4.6,-13.3 11.7,-17.1 4.2,-2.3 6.8,-5.9 6.8,-9.8 V 43 c 0,-3.9 -2.5,-7.6 -6.8,-9.8 -6.5,-3.5 -10.9,-9 -11.6,-15.3 h 9.9 c 0.7,3.1 3,5.9 6.8,8 5.7,3 9.5,7.7 10.9,12.9 1.4,-5.2 5.3,-9.9 10.9,-12.9 3.8,-2 6.2,-4.8 6.8,-8 H 19.6"
     fill="none"
     stroke="#f47e60"
     stroke-width="3"
     stroke-linecap="round"
     stroke-linejoin="round"
     id="path2">
    <animate
       attributeName="stroke-dasharray"
       keyTimes="0;1"
       values="480 100;480 110"
       dur="3.2258064516129035s"
       repeatCount="indefinite" />
    <animate
       attributeName="stroke-dashoffset"
       keyTimes="0;1"
       values="0;-1180"
       dur="3.2258064516129035s"
       repeatCount="indefinite" />
  </path>
</svg>
